<mxfile host="app.diagrams.net" modified="2023-09-26T11:02:15.733Z" agent="Mozilla/5.0 (Windows NT 10.0; Win64; x64) AppleWebKit/537.36 (KHTML, like Gecko) Chrome/116.0.0.0 Safari/537.36" etag="N-konBRgZdchj_9PEl8g" version="21.8.2" type="device">
  <diagram name="Page-1" id="8gxXetZOgu5nL31Qtz_t">
    <mxGraphModel dx="3407" dy="1162" grid="1" gridSize="10" guides="1" tooltips="1" connect="1" arrows="1" fold="1" page="1" pageScale="1" pageWidth="827" pageHeight="1169" math="0" shadow="0">
      <root>
        <mxCell id="0" />
        <mxCell id="1" parent="0" />
        <mxCell id="M1WHz1mQ-P7SR8G3ef1P-63" value="" style="group" vertex="1" connectable="0" parent="1">
          <mxGeometry x="-760" width="1520" height="1149" as="geometry" />
        </mxCell>
        <mxCell id="M1WHz1mQ-P7SR8G3ef1P-1" value="TRƯỜNG" style="rounded=0;whiteSpace=wrap;html=1;" vertex="1" parent="M1WHz1mQ-P7SR8G3ef1P-63">
          <mxGeometry x="521.1428571428572" y="110" width="173.71428571428572" height="60" as="geometry" />
        </mxCell>
        <mxCell id="M1WHz1mQ-P7SR8G3ef1P-3" value="TÊN TRƯỜNG" style="ellipse;whiteSpace=wrap;html=1;" vertex="1" parent="M1WHz1mQ-P7SR8G3ef1P-63">
          <mxGeometry x="810.6666666666667" y="100" width="173.71428571428572" height="80" as="geometry" />
        </mxCell>
        <mxCell id="M1WHz1mQ-P7SR8G3ef1P-4" value="MÃ TRƯỜNG" style="ellipse;whiteSpace=wrap;html=1;align=center;fontStyle=4;" vertex="1" parent="M1WHz1mQ-P7SR8G3ef1P-63">
          <mxGeometry x="810.6666666666667" width="173.71428571428572" height="80" as="geometry" />
        </mxCell>
        <mxCell id="M1WHz1mQ-P7SR8G3ef1P-5" value="" style="endArrow=none;html=1;rounded=0;entryX=0;entryY=0.5;entryDx=0;entryDy=0;exitX=1;exitY=0.5;exitDx=0;exitDy=0;" edge="1" parent="M1WHz1mQ-P7SR8G3ef1P-63" source="M1WHz1mQ-P7SR8G3ef1P-1" target="M1WHz1mQ-P7SR8G3ef1P-4">
          <mxGeometry width="50" height="50" relative="1" as="geometry">
            <mxPoint x="709.3333333333334" y="190" as="sourcePoint" />
            <mxPoint x="781.7142857142859" y="140" as="targetPoint" />
            <Array as="points" />
          </mxGeometry>
        </mxCell>
        <mxCell id="M1WHz1mQ-P7SR8G3ef1P-6" value="" style="endArrow=none;html=1;rounded=0;entryX=0;entryY=0.5;entryDx=0;entryDy=0;exitX=1;exitY=0.5;exitDx=0;exitDy=0;" edge="1" parent="M1WHz1mQ-P7SR8G3ef1P-63" source="M1WHz1mQ-P7SR8G3ef1P-1" target="M1WHz1mQ-P7SR8G3ef1P-3">
          <mxGeometry width="50" height="50" relative="1" as="geometry">
            <mxPoint x="723.809523809524" y="190" as="sourcePoint" />
            <mxPoint x="796.1904761904761" y="140" as="targetPoint" />
          </mxGeometry>
        </mxCell>
        <mxCell id="M1WHz1mQ-P7SR8G3ef1P-7" value="HIỆU TRƯỞNG" style="ellipse;whiteSpace=wrap;html=1;" vertex="1" parent="M1WHz1mQ-P7SR8G3ef1P-63">
          <mxGeometry x="810.6666666666667" y="200" width="173.71428571428572" height="80" as="geometry" />
        </mxCell>
        <mxCell id="M1WHz1mQ-P7SR8G3ef1P-8" value="" style="endArrow=none;html=1;rounded=0;entryX=0;entryY=0.5;entryDx=0;entryDy=0;exitX=1;exitY=0.5;exitDx=0;exitDy=0;" edge="1" parent="M1WHz1mQ-P7SR8G3ef1P-63" source="M1WHz1mQ-P7SR8G3ef1P-1" target="M1WHz1mQ-P7SR8G3ef1P-7">
          <mxGeometry width="50" height="50" relative="1" as="geometry">
            <mxPoint x="680.3809523809523" y="240" as="sourcePoint" />
            <mxPoint x="752.7619047619048" y="190" as="targetPoint" />
          </mxGeometry>
        </mxCell>
        <mxCell id="M1WHz1mQ-P7SR8G3ef1P-9" value="KHOA" style="rounded=0;whiteSpace=wrap;html=1;" vertex="1" parent="M1WHz1mQ-P7SR8G3ef1P-63">
          <mxGeometry x="521.1428571428572" y="340" width="173.71428571428572" height="60" as="geometry" />
        </mxCell>
        <mxCell id="M1WHz1mQ-P7SR8G3ef1P-11" value="TÊN KHOA" style="ellipse;whiteSpace=wrap;html=1;" vertex="1" parent="M1WHz1mQ-P7SR8G3ef1P-63">
          <mxGeometry x="231.61904761904762" y="380" width="173.71428571428572" height="80" as="geometry" />
        </mxCell>
        <mxCell id="M1WHz1mQ-P7SR8G3ef1P-12" value="MÃ KHOA" style="ellipse;whiteSpace=wrap;html=1;align=center;fontStyle=4;" vertex="1" parent="M1WHz1mQ-P7SR8G3ef1P-63">
          <mxGeometry x="231.61904761904762" y="260" width="173.71428571428572" height="80" as="geometry" />
        </mxCell>
        <mxCell id="M1WHz1mQ-P7SR8G3ef1P-13" value="" style="endArrow=none;html=1;rounded=0;exitX=1;exitY=0.5;exitDx=0;exitDy=0;entryX=0;entryY=0.5;entryDx=0;entryDy=0;" edge="1" parent="M1WHz1mQ-P7SR8G3ef1P-63" source="M1WHz1mQ-P7SR8G3ef1P-12" target="M1WHz1mQ-P7SR8G3ef1P-9">
          <mxGeometry width="50" height="50" relative="1" as="geometry">
            <mxPoint x="434.28571428571433" y="290" as="sourcePoint" />
            <mxPoint x="506.6666666666667" y="240" as="targetPoint" />
          </mxGeometry>
        </mxCell>
        <mxCell id="M1WHz1mQ-P7SR8G3ef1P-14" value="" style="endArrow=none;html=1;rounded=0;exitX=1;exitY=0.5;exitDx=0;exitDy=0;entryX=0;entryY=0.5;entryDx=0;entryDy=0;" edge="1" parent="M1WHz1mQ-P7SR8G3ef1P-63" source="M1WHz1mQ-P7SR8G3ef1P-11" target="M1WHz1mQ-P7SR8G3ef1P-9">
          <mxGeometry width="50" height="50" relative="1" as="geometry">
            <mxPoint x="434.28571428571433" y="420" as="sourcePoint" />
            <mxPoint x="506.6666666666667" y="370" as="targetPoint" />
          </mxGeometry>
        </mxCell>
        <mxCell id="M1WHz1mQ-P7SR8G3ef1P-20" value="GIÁO VIÊN" style="rounded=0;whiteSpace=wrap;html=1;" vertex="1" parent="M1WHz1mQ-P7SR8G3ef1P-63">
          <mxGeometry x="1071.2380952380952" y="340" width="173.71428571428572" height="60" as="geometry" />
        </mxCell>
        <mxCell id="M1WHz1mQ-P7SR8G3ef1P-21" value="MÃ GV" style="ellipse;whiteSpace=wrap;html=1;align=center;fontStyle=4;" vertex="1" parent="M1WHz1mQ-P7SR8G3ef1P-63">
          <mxGeometry x="1331.809523809524" y="250" width="173.71428571428572" height="80" as="geometry" />
        </mxCell>
        <mxCell id="M1WHz1mQ-P7SR8G3ef1P-22" value="TÊN GV" style="ellipse;whiteSpace=wrap;html=1;" vertex="1" parent="M1WHz1mQ-P7SR8G3ef1P-63">
          <mxGeometry x="1331.809523809524" y="370" width="173.71428571428572" height="80" as="geometry" />
        </mxCell>
        <mxCell id="M1WHz1mQ-P7SR8G3ef1P-23" value="" style="endArrow=none;html=1;rounded=0;entryX=0;entryY=0.5;entryDx=0;entryDy=0;exitX=1;exitY=0.5;exitDx=0;exitDy=0;" edge="1" parent="M1WHz1mQ-P7SR8G3ef1P-63" source="M1WHz1mQ-P7SR8G3ef1P-20" target="M1WHz1mQ-P7SR8G3ef1P-21">
          <mxGeometry width="50" height="50" relative="1" as="geometry">
            <mxPoint x="1187.047619047619" y="380" as="sourcePoint" />
            <mxPoint x="1259.4285714285713" y="330" as="targetPoint" />
          </mxGeometry>
        </mxCell>
        <mxCell id="M1WHz1mQ-P7SR8G3ef1P-24" value="" style="endArrow=none;html=1;rounded=0;entryX=1;entryY=0.5;entryDx=0;entryDy=0;exitX=0;exitY=0.5;exitDx=0;exitDy=0;" edge="1" parent="M1WHz1mQ-P7SR8G3ef1P-63" source="M1WHz1mQ-P7SR8G3ef1P-22" target="M1WHz1mQ-P7SR8G3ef1P-20">
          <mxGeometry width="50" height="50" relative="1" as="geometry">
            <mxPoint x="1216" y="400" as="sourcePoint" />
            <mxPoint x="1288.3809523809523" y="350" as="targetPoint" />
          </mxGeometry>
        </mxCell>
        <mxCell id="M1WHz1mQ-P7SR8G3ef1P-25" value="THUÊ" style="rhombus;whiteSpace=wrap;html=1;" vertex="1" parent="M1WHz1mQ-P7SR8G3ef1P-63">
          <mxGeometry x="810.6666666666667" y="330" width="115.80952380952381" height="80" as="geometry" />
        </mxCell>
        <mxCell id="M1WHz1mQ-P7SR8G3ef1P-26" value="" style="endArrow=none;html=1;rounded=0;entryX=0;entryY=0.5;entryDx=0;entryDy=0;exitX=1;exitY=0.5;exitDx=0;exitDy=0;" edge="1" parent="M1WHz1mQ-P7SR8G3ef1P-63" source="M1WHz1mQ-P7SR8G3ef1P-9" target="M1WHz1mQ-P7SR8G3ef1P-25">
          <mxGeometry width="50" height="50" relative="1" as="geometry">
            <mxPoint x="723.809523809524" y="440" as="sourcePoint" />
            <mxPoint x="796.1904761904761" y="390" as="targetPoint" />
          </mxGeometry>
        </mxCell>
        <mxCell id="M1WHz1mQ-P7SR8G3ef1P-27" value="" style="endArrow=none;html=1;rounded=0;entryX=0;entryY=0.5;entryDx=0;entryDy=0;exitX=1;exitY=0.5;exitDx=0;exitDy=0;" edge="1" parent="M1WHz1mQ-P7SR8G3ef1P-63" source="M1WHz1mQ-P7SR8G3ef1P-25" target="M1WHz1mQ-P7SR8G3ef1P-20">
          <mxGeometry width="50" height="50" relative="1" as="geometry">
            <mxPoint x="912.0000000000001" y="440" as="sourcePoint" />
            <mxPoint x="984.3809523809523" y="390" as="targetPoint" />
          </mxGeometry>
        </mxCell>
        <mxCell id="M1WHz1mQ-P7SR8G3ef1P-28" value="THUỘC VỀ" style="rhombus;whiteSpace=wrap;html=1;" vertex="1" parent="M1WHz1mQ-P7SR8G3ef1P-63">
          <mxGeometry x="550.0952380952381" y="220" width="115.80952380952381" height="80" as="geometry" />
        </mxCell>
        <mxCell id="M1WHz1mQ-P7SR8G3ef1P-29" value="" style="endArrow=none;html=1;rounded=0;entryX=0.5;entryY=1;entryDx=0;entryDy=0;exitX=0.5;exitY=0;exitDx=0;exitDy=0;" edge="1" parent="M1WHz1mQ-P7SR8G3ef1P-63" source="M1WHz1mQ-P7SR8G3ef1P-28" target="M1WHz1mQ-P7SR8G3ef1P-1">
          <mxGeometry width="50" height="50" relative="1" as="geometry">
            <mxPoint x="535.6190476190476" y="230" as="sourcePoint" />
            <mxPoint x="608" y="180" as="targetPoint" />
          </mxGeometry>
        </mxCell>
        <mxCell id="M1WHz1mQ-P7SR8G3ef1P-30" value="" style="endArrow=none;html=1;rounded=0;exitX=0.5;exitY=0;exitDx=0;exitDy=0;entryX=0.5;entryY=1;entryDx=0;entryDy=0;" edge="1" parent="M1WHz1mQ-P7SR8G3ef1P-63" source="M1WHz1mQ-P7SR8G3ef1P-9" target="M1WHz1mQ-P7SR8G3ef1P-28">
          <mxGeometry width="50" height="50" relative="1" as="geometry">
            <mxPoint x="564.5714285714287" y="340" as="sourcePoint" />
            <mxPoint x="636.952380952381" y="290" as="targetPoint" />
          </mxGeometry>
        </mxCell>
        <mxCell id="M1WHz1mQ-P7SR8G3ef1P-31" value="" style="group" vertex="1" connectable="0" parent="M1WHz1mQ-P7SR8G3ef1P-63">
          <mxGeometry x="231.61904761904762" y="640" width="463.23809523809524" height="280" as="geometry" />
        </mxCell>
        <mxCell id="M1WHz1mQ-P7SR8G3ef1P-15" value="MÔN HỌC" style="rounded=0;whiteSpace=wrap;html=1;" vertex="1" parent="M1WHz1mQ-P7SR8G3ef1P-31">
          <mxGeometry x="289.5238095238095" y="80" width="173.71428571428572" height="60" as="geometry" />
        </mxCell>
        <mxCell id="M1WHz1mQ-P7SR8G3ef1P-16" value="TÊN MH" style="ellipse;whiteSpace=wrap;html=1;" vertex="1" parent="M1WHz1mQ-P7SR8G3ef1P-31">
          <mxGeometry x="14.476190476190476" y="70" width="173.71428571428572" height="80" as="geometry" />
        </mxCell>
        <mxCell id="M1WHz1mQ-P7SR8G3ef1P-19" value="" style="endArrow=none;html=1;rounded=0;entryX=0;entryY=0.5;entryDx=0;entryDy=0;exitX=1;exitY=0.5;exitDx=0;exitDy=0;" edge="1" parent="M1WHz1mQ-P7SR8G3ef1P-31" source="M1WHz1mQ-P7SR8G3ef1P-16" target="M1WHz1mQ-P7SR8G3ef1P-15">
          <mxGeometry width="50" height="50" relative="1" as="geometry">
            <mxPoint x="202.66666666666669" y="300" as="sourcePoint" />
            <mxPoint x="275.04761904761904" y="250" as="targetPoint" />
          </mxGeometry>
        </mxCell>
        <mxCell id="M1WHz1mQ-P7SR8G3ef1P-46" value="HỌC" style="rhombus;whiteSpace=wrap;html=1;" vertex="1" parent="M1WHz1mQ-P7SR8G3ef1P-31">
          <mxGeometry x="318.4761904761905" y="200" width="115.80952380952381" height="80" as="geometry" />
        </mxCell>
        <mxCell id="M1WHz1mQ-P7SR8G3ef1P-47" value="" style="endArrow=none;html=1;rounded=0;entryX=0.5;entryY=1;entryDx=0;entryDy=0;exitX=0.5;exitY=0;exitDx=0;exitDy=0;" edge="1" parent="M1WHz1mQ-P7SR8G3ef1P-31" source="M1WHz1mQ-P7SR8G3ef1P-46" target="M1WHz1mQ-P7SR8G3ef1P-15">
          <mxGeometry width="50" height="50" relative="1" as="geometry">
            <mxPoint x="304" y="210" as="sourcePoint" />
            <mxPoint x="376.3809523809524" y="160" as="targetPoint" />
          </mxGeometry>
        </mxCell>
        <mxCell id="M1WHz1mQ-P7SR8G3ef1P-68" value="" style="endArrow=none;html=1;rounded=0;entryX=0.519;entryY=0.986;entryDx=0;entryDy=0;entryPerimeter=0;" edge="1" parent="M1WHz1mQ-P7SR8G3ef1P-31" target="M1WHz1mQ-P7SR8G3ef1P-35">
          <mxGeometry width="50" height="50" relative="1" as="geometry">
            <mxPoint x="378.3809523809524" y="80" as="sourcePoint" />
            <mxPoint x="428.3809523809524" y="10" as="targetPoint" />
          </mxGeometry>
        </mxCell>
        <mxCell id="M1WHz1mQ-P7SR8G3ef1P-32" value="CHỦ NHIỆM KHOA" style="rhombus;whiteSpace=wrap;html=1;" vertex="1" parent="M1WHz1mQ-P7SR8G3ef1P-63">
          <mxGeometry x="810.6666666666667" y="440" width="115.80952380952381" height="80" as="geometry" />
        </mxCell>
        <mxCell id="M1WHz1mQ-P7SR8G3ef1P-33" value="" style="endArrow=none;html=1;rounded=0;exitX=1;exitY=0.5;exitDx=0;exitDy=0;entryX=0;entryY=0.5;entryDx=0;entryDy=0;" edge="1" parent="M1WHz1mQ-P7SR8G3ef1P-63" source="M1WHz1mQ-P7SR8G3ef1P-9" target="M1WHz1mQ-P7SR8G3ef1P-32">
          <mxGeometry width="50" height="50" relative="1" as="geometry">
            <mxPoint x="709.3333333333334" y="470" as="sourcePoint" />
            <mxPoint x="781.7142857142859" y="420" as="targetPoint" />
          </mxGeometry>
        </mxCell>
        <mxCell id="M1WHz1mQ-P7SR8G3ef1P-34" value="" style="endArrow=none;html=1;rounded=0;entryX=0;entryY=0.5;entryDx=0;entryDy=0;exitX=1;exitY=0.5;exitDx=0;exitDy=0;" edge="1" parent="M1WHz1mQ-P7SR8G3ef1P-63" source="M1WHz1mQ-P7SR8G3ef1P-32" target="M1WHz1mQ-P7SR8G3ef1P-20">
          <mxGeometry width="50" height="50" relative="1" as="geometry">
            <mxPoint x="926.4761904761905" y="440" as="sourcePoint" />
            <mxPoint x="998.8571428571429" y="390" as="targetPoint" />
          </mxGeometry>
        </mxCell>
        <mxCell id="M1WHz1mQ-P7SR8G3ef1P-35" value="CUNG CẤP" style="rhombus;whiteSpace=wrap;html=1;" vertex="1" parent="M1WHz1mQ-P7SR8G3ef1P-63">
          <mxGeometry x="550.0952380952381" y="565" width="115.80952380952381" height="80" as="geometry" />
        </mxCell>
        <mxCell id="M1WHz1mQ-P7SR8G3ef1P-36" value="" style="endArrow=none;html=1;rounded=0;entryX=0.5;entryY=1;entryDx=0;entryDy=0;exitX=0.5;exitY=0;exitDx=0;exitDy=0;" edge="1" parent="M1WHz1mQ-P7SR8G3ef1P-63" source="M1WHz1mQ-P7SR8G3ef1P-35" target="M1WHz1mQ-P7SR8G3ef1P-9">
          <mxGeometry width="50" height="50" relative="1" as="geometry">
            <mxPoint x="521.1428571428572" y="490" as="sourcePoint" />
            <mxPoint x="593.5238095238095" y="440" as="targetPoint" />
          </mxGeometry>
        </mxCell>
        <mxCell id="M1WHz1mQ-P7SR8G3ef1P-37" value="" style="endArrow=none;html=1;rounded=0;entryX=0.5;entryY=1;entryDx=0;entryDy=0;exitX=0.5;exitY=0;exitDx=0;exitDy=0;" edge="1" parent="M1WHz1mQ-P7SR8G3ef1P-63" source="M1WHz1mQ-P7SR8G3ef1P-15" target="M1WHz1mQ-P7SR8G3ef1P-35">
          <mxGeometry width="50" height="50" relative="1" as="geometry">
            <mxPoint x="521.1428571428572" y="680" as="sourcePoint" />
            <mxPoint x="593.5238095238095" y="630" as="targetPoint" />
          </mxGeometry>
        </mxCell>
        <mxCell id="M1WHz1mQ-P7SR8G3ef1P-38" value="QUẢN LÝ" style="rhombus;whiteSpace=wrap;html=1;" vertex="1" parent="M1WHz1mQ-P7SR8G3ef1P-63">
          <mxGeometry y="580" width="115.80952380952381" height="80" as="geometry" />
        </mxCell>
        <mxCell id="M1WHz1mQ-P7SR8G3ef1P-39" value="" style="endArrow=none;html=1;rounded=0;exitX=0.5;exitY=0;exitDx=0;exitDy=0;entryX=0.5;entryY=1;entryDx=0;entryDy=0;" edge="1" parent="M1WHz1mQ-P7SR8G3ef1P-63" source="M1WHz1mQ-P7SR8G3ef1P-38" target="M1WHz1mQ-P7SR8G3ef1P-9">
          <mxGeometry width="50" height="50" relative="1" as="geometry">
            <mxPoint x="173.71428571428572" y="570" as="sourcePoint" />
            <mxPoint x="246.09523809523807" y="520" as="targetPoint" />
          </mxGeometry>
        </mxCell>
        <mxCell id="M1WHz1mQ-P7SR8G3ef1P-40" value="" style="endArrow=none;html=1;rounded=0;entryX=0.5;entryY=1;entryDx=0;entryDy=0;exitX=0;exitY=0.5;exitDx=0;exitDy=0;" edge="1" parent="M1WHz1mQ-P7SR8G3ef1P-63" source="M1WHz1mQ-P7SR8G3ef1P-41" target="M1WHz1mQ-P7SR8G3ef1P-38">
          <mxGeometry width="50" height="50" relative="1" as="geometry">
            <mxPoint x="57.904761904761905" y="770" as="sourcePoint" />
            <mxPoint x="130.2857142857143" y="720" as="targetPoint" />
          </mxGeometry>
        </mxCell>
        <mxCell id="M1WHz1mQ-P7SR8G3ef1P-41" value="SINH VIÊN" style="rounded=0;whiteSpace=wrap;html=1;" vertex="1" parent="M1WHz1mQ-P7SR8G3ef1P-63">
          <mxGeometry x="521.1428571428572" y="1030" width="173.71428571428572" height="60" as="geometry" />
        </mxCell>
        <mxCell id="M1WHz1mQ-P7SR8G3ef1P-42" value="TÊN SV" style="ellipse;whiteSpace=wrap;html=1;" vertex="1" parent="M1WHz1mQ-P7SR8G3ef1P-63">
          <mxGeometry x="202.66666666666669" y="1060" width="173.71428571428572" height="80" as="geometry" />
        </mxCell>
        <mxCell id="M1WHz1mQ-P7SR8G3ef1P-43" value="MSV" style="ellipse;whiteSpace=wrap;html=1;align=center;fontStyle=4;" vertex="1" parent="M1WHz1mQ-P7SR8G3ef1P-63">
          <mxGeometry x="202.66666666666669" y="960" width="173.71428571428572" height="80" as="geometry" />
        </mxCell>
        <mxCell id="M1WHz1mQ-P7SR8G3ef1P-44" value="" style="endArrow=none;html=1;rounded=0;exitX=1;exitY=0.5;exitDx=0;exitDy=0;entryX=0;entryY=0.5;entryDx=0;entryDy=0;" edge="1" parent="M1WHz1mQ-P7SR8G3ef1P-63" source="M1WHz1mQ-P7SR8G3ef1P-43" target="M1WHz1mQ-P7SR8G3ef1P-41">
          <mxGeometry width="50" height="50" relative="1" as="geometry">
            <mxPoint x="405.33333333333337" y="1040" as="sourcePoint" />
            <mxPoint x="477.7142857142857" y="990" as="targetPoint" />
          </mxGeometry>
        </mxCell>
        <mxCell id="M1WHz1mQ-P7SR8G3ef1P-45" value="" style="endArrow=none;html=1;rounded=0;entryX=0;entryY=0.5;entryDx=0;entryDy=0;exitX=1;exitY=0.5;exitDx=0;exitDy=0;" edge="1" parent="M1WHz1mQ-P7SR8G3ef1P-63" source="M1WHz1mQ-P7SR8G3ef1P-42" target="M1WHz1mQ-P7SR8G3ef1P-41">
          <mxGeometry width="50" height="50" relative="1" as="geometry">
            <mxPoint x="419.80952380952385" y="1130" as="sourcePoint" />
            <mxPoint x="492.19047619047615" y="1080" as="targetPoint" />
          </mxGeometry>
        </mxCell>
        <mxCell id="M1WHz1mQ-P7SR8G3ef1P-48" value="" style="endArrow=none;html=1;rounded=0;entryX=0.5;entryY=1;entryDx=0;entryDy=0;exitX=0.5;exitY=0;exitDx=0;exitDy=0;" edge="1" parent="M1WHz1mQ-P7SR8G3ef1P-63" source="M1WHz1mQ-P7SR8G3ef1P-41" target="M1WHz1mQ-P7SR8G3ef1P-46">
          <mxGeometry width="50" height="50" relative="1" as="geometry">
            <mxPoint x="492.19047619047615" y="1030" as="sourcePoint" />
            <mxPoint x="564.5714285714287" y="980" as="targetPoint" />
          </mxGeometry>
        </mxCell>
        <mxCell id="M1WHz1mQ-P7SR8G3ef1P-17" value="MÃ MH" style="ellipse;whiteSpace=wrap;html=1;align=center;fontStyle=4;" vertex="1" parent="M1WHz1mQ-P7SR8G3ef1P-63">
          <mxGeometry x="246.09523809523807" y="620" width="173.71428571428572" height="80" as="geometry" />
        </mxCell>
        <mxCell id="M1WHz1mQ-P7SR8G3ef1P-18" value="" style="endArrow=none;html=1;rounded=0;exitX=1;exitY=0.5;exitDx=0;exitDy=0;entryX=0;entryY=0.5;entryDx=0;entryDy=0;" edge="1" parent="M1WHz1mQ-P7SR8G3ef1P-63" source="M1WHz1mQ-P7SR8G3ef1P-17" target="M1WHz1mQ-P7SR8G3ef1P-15">
          <mxGeometry width="50" height="50" relative="1" as="geometry">
            <mxPoint x="463.23809523809524" y="750" as="sourcePoint" />
            <mxPoint x="535.6190476190476" y="700" as="targetPoint" />
          </mxGeometry>
        </mxCell>
        <mxCell id="M1WHz1mQ-P7SR8G3ef1P-49" value="DẠY" style="rhombus;whiteSpace=wrap;html=1;" vertex="1" parent="M1WHz1mQ-P7SR8G3ef1P-63">
          <mxGeometry x="810.6666666666667" y="710" width="115.80952380952381" height="80" as="geometry" />
        </mxCell>
        <mxCell id="M1WHz1mQ-P7SR8G3ef1P-50" value="" style="endArrow=none;html=1;rounded=0;entryX=0;entryY=0.5;entryDx=0;entryDy=0;exitX=1;exitY=0.5;exitDx=0;exitDy=0;" edge="1" parent="M1WHz1mQ-P7SR8G3ef1P-63" source="M1WHz1mQ-P7SR8G3ef1P-49" target="M1WHz1mQ-P7SR8G3ef1P-20">
          <mxGeometry width="50" height="50" relative="1" as="geometry">
            <mxPoint x="969.904761904762" y="600" as="sourcePoint" />
            <mxPoint x="1042.2857142857144" y="550" as="targetPoint" />
          </mxGeometry>
        </mxCell>
        <mxCell id="M1WHz1mQ-P7SR8G3ef1P-51" value="" style="endArrow=none;html=1;rounded=0;entryX=0;entryY=0.5;entryDx=0;entryDy=0;exitX=1;exitY=0.5;exitDx=0;exitDy=0;" edge="1" parent="M1WHz1mQ-P7SR8G3ef1P-63" source="M1WHz1mQ-P7SR8G3ef1P-15" target="M1WHz1mQ-P7SR8G3ef1P-49">
          <mxGeometry width="50" height="50" relative="1" as="geometry">
            <mxPoint x="723.809523809524" y="830" as="sourcePoint" />
            <mxPoint x="796.1904761904761" y="780" as="targetPoint" />
          </mxGeometry>
        </mxCell>
        <mxCell id="M1WHz1mQ-P7SR8G3ef1P-52" value="LỚP" style="rounded=0;whiteSpace=wrap;html=1;" vertex="1" parent="M1WHz1mQ-P7SR8G3ef1P-63">
          <mxGeometry x="1071.2380952380952" y="1030" width="173.71428571428572" height="60" as="geometry" />
        </mxCell>
        <mxCell id="M1WHz1mQ-P7SR8G3ef1P-53" value="MÃ LỚP" style="ellipse;whiteSpace=wrap;html=1;align=center;fontStyle=4;" vertex="1" parent="M1WHz1mQ-P7SR8G3ef1P-63">
          <mxGeometry x="1346.2857142857144" y="950" width="173.71428571428572" height="80" as="geometry" />
        </mxCell>
        <mxCell id="M1WHz1mQ-P7SR8G3ef1P-54" value="TÊN LỚP" style="ellipse;whiteSpace=wrap;html=1;" vertex="1" parent="M1WHz1mQ-P7SR8G3ef1P-63">
          <mxGeometry x="1346.2857142857144" y="1069" width="173.71428571428572" height="80" as="geometry" />
        </mxCell>
        <mxCell id="M1WHz1mQ-P7SR8G3ef1P-55" value="" style="endArrow=none;html=1;rounded=0;entryX=0;entryY=0.5;entryDx=0;entryDy=0;exitX=1;exitY=0.5;exitDx=0;exitDy=0;" edge="1" parent="M1WHz1mQ-P7SR8G3ef1P-63" source="M1WHz1mQ-P7SR8G3ef1P-52" target="M1WHz1mQ-P7SR8G3ef1P-53">
          <mxGeometry width="50" height="50" relative="1" as="geometry">
            <mxPoint x="1172.5714285714287" y="780" as="sourcePoint" />
            <mxPoint x="1244.9523809523812" y="730" as="targetPoint" />
          </mxGeometry>
        </mxCell>
        <mxCell id="M1WHz1mQ-P7SR8G3ef1P-56" value="" style="endArrow=none;html=1;rounded=0;entryX=0;entryY=0.5;entryDx=0;entryDy=0;exitX=1;exitY=0.5;exitDx=0;exitDy=0;" edge="1" parent="M1WHz1mQ-P7SR8G3ef1P-63" source="M1WHz1mQ-P7SR8G3ef1P-52" target="M1WHz1mQ-P7SR8G3ef1P-54">
          <mxGeometry width="50" height="50" relative="1" as="geometry">
            <mxPoint x="1158.095238095238" y="960" as="sourcePoint" />
            <mxPoint x="1230.4761904761906" y="910" as="targetPoint" />
          </mxGeometry>
        </mxCell>
        <mxCell id="M1WHz1mQ-P7SR8G3ef1P-57" value="CHỦ NHIỆM LỚP" style="rhombus;whiteSpace=wrap;html=1;" vertex="1" parent="M1WHz1mQ-P7SR8G3ef1P-63">
          <mxGeometry x="1100.1904761904761" y="565" width="115.80952380952381" height="80" as="geometry" />
        </mxCell>
        <mxCell id="M1WHz1mQ-P7SR8G3ef1P-58" value="" style="endArrow=none;html=1;rounded=0;entryX=0.5;entryY=1;entryDx=0;entryDy=0;exitX=0.5;exitY=0;exitDx=0;exitDy=0;" edge="1" parent="M1WHz1mQ-P7SR8G3ef1P-63" source="M1WHz1mQ-P7SR8G3ef1P-57" target="M1WHz1mQ-P7SR8G3ef1P-20">
          <mxGeometry width="50" height="50" relative="1" as="geometry">
            <mxPoint x="1114.6666666666667" y="530" as="sourcePoint" />
            <mxPoint x="1187.047619047619" y="480" as="targetPoint" />
          </mxGeometry>
        </mxCell>
        <mxCell id="M1WHz1mQ-P7SR8G3ef1P-59" value="" style="endArrow=none;html=1;rounded=0;entryX=0.5;entryY=1;entryDx=0;entryDy=0;exitX=0.5;exitY=0;exitDx=0;exitDy=0;" edge="1" parent="M1WHz1mQ-P7SR8G3ef1P-63" source="M1WHz1mQ-P7SR8G3ef1P-52" target="M1WHz1mQ-P7SR8G3ef1P-57">
          <mxGeometry width="50" height="50" relative="1" as="geometry">
            <mxPoint x="1100.1904761904761" y="710" as="sourcePoint" />
            <mxPoint x="1172.5714285714287" y="660" as="targetPoint" />
          </mxGeometry>
        </mxCell>
        <mxCell id="M1WHz1mQ-P7SR8G3ef1P-60" value="CÓ" style="rhombus;whiteSpace=wrap;html=1;" vertex="1" parent="M1WHz1mQ-P7SR8G3ef1P-63">
          <mxGeometry x="810.6666666666667" y="1020" width="115.80952380952381" height="80" as="geometry" />
        </mxCell>
        <mxCell id="M1WHz1mQ-P7SR8G3ef1P-61" value="" style="endArrow=none;html=1;rounded=0;entryX=0;entryY=0.5;entryDx=0;entryDy=0;exitX=1;exitY=0.5;exitDx=0;exitDy=0;" edge="1" parent="M1WHz1mQ-P7SR8G3ef1P-63" source="M1WHz1mQ-P7SR8G3ef1P-41" target="M1WHz1mQ-P7SR8G3ef1P-60">
          <mxGeometry width="50" height="50" relative="1" as="geometry">
            <mxPoint x="723.809523809524" y="1100" as="sourcePoint" />
            <mxPoint x="796.1904761904761" y="1050" as="targetPoint" />
          </mxGeometry>
        </mxCell>
        <mxCell id="M1WHz1mQ-P7SR8G3ef1P-62" value="" style="endArrow=none;html=1;rounded=0;entryX=0;entryY=0.5;entryDx=0;entryDy=0;exitX=1;exitY=0.5;exitDx=0;exitDy=0;" edge="1" parent="M1WHz1mQ-P7SR8G3ef1P-63" source="M1WHz1mQ-P7SR8G3ef1P-60" target="M1WHz1mQ-P7SR8G3ef1P-52">
          <mxGeometry width="50" height="50" relative="1" as="geometry">
            <mxPoint x="955.4285714285714" y="1090" as="sourcePoint" />
            <mxPoint x="1027.8095238095239" y="1040" as="targetPoint" />
          </mxGeometry>
        </mxCell>
        <mxCell id="M1WHz1mQ-P7SR8G3ef1P-64" value="1" style="text;html=1;align=center;verticalAlign=middle;resizable=0;points=[];autosize=1;strokeColor=none;fillColor=none;" vertex="1" parent="M1WHz1mQ-P7SR8G3ef1P-63">
          <mxGeometry x="605" y="168" width="30" height="30" as="geometry" />
        </mxCell>
        <mxCell id="M1WHz1mQ-P7SR8G3ef1P-66" value="" style="endArrow=none;html=1;rounded=0;entryX=0.514;entryY=0.992;entryDx=0;entryDy=0;entryPerimeter=0;" edge="1" parent="M1WHz1mQ-P7SR8G3ef1P-63" target="M1WHz1mQ-P7SR8G3ef1P-28">
          <mxGeometry width="50" height="50" relative="1" as="geometry">
            <mxPoint x="610" y="340" as="sourcePoint" />
            <mxPoint x="700" y="280" as="targetPoint" />
          </mxGeometry>
        </mxCell>
        <mxCell id="M1WHz1mQ-P7SR8G3ef1P-65" value="N" style="text;html=1;align=center;verticalAlign=middle;resizable=0;points=[];autosize=1;strokeColor=none;fillColor=none;" vertex="1" parent="M1WHz1mQ-P7SR8G3ef1P-63">
          <mxGeometry x="605" y="310" width="30" height="30" as="geometry" />
        </mxCell>
        <mxCell id="M1WHz1mQ-P7SR8G3ef1P-70" value="" style="endArrow=none;html=1;rounded=0;entryX=-0.002;entryY=0.434;entryDx=0;entryDy=0;entryPerimeter=0;" edge="1" parent="M1WHz1mQ-P7SR8G3ef1P-63" target="M1WHz1mQ-P7SR8G3ef1P-20">
          <mxGeometry width="50" height="50" relative="1" as="geometry">
            <mxPoint x="920" y="366" as="sourcePoint" />
            <mxPoint x="1000" y="310" as="targetPoint" />
          </mxGeometry>
        </mxCell>
        <mxCell id="M1WHz1mQ-P7SR8G3ef1P-72" value="N" style="text;html=1;align=center;verticalAlign=middle;resizable=0;points=[];autosize=1;strokeColor=none;fillColor=none;" vertex="1" parent="M1WHz1mQ-P7SR8G3ef1P-63">
          <mxGeometry x="1041.24" y="340" width="30" height="30" as="geometry" />
        </mxCell>
        <mxCell id="M1WHz1mQ-P7SR8G3ef1P-74" value="&lt;blockquote style=&quot;margin: 0 0 0 40px; border: none; padding: 0px;&quot;&gt;1&lt;/blockquote&gt;" style="text;html=1;align=center;verticalAlign=middle;resizable=0;points=[];autosize=1;strokeColor=none;fillColor=none;" vertex="1" parent="M1WHz1mQ-P7SR8G3ef1P-63">
          <mxGeometry x="984.38" y="370" width="70" height="30" as="geometry" />
        </mxCell>
        <mxCell id="M1WHz1mQ-P7SR8G3ef1P-75" value="1" style="text;html=1;align=center;verticalAlign=middle;resizable=0;points=[];autosize=1;strokeColor=none;fillColor=none;" vertex="1" parent="M1WHz1mQ-P7SR8G3ef1P-63">
          <mxGeometry x="1054.38" y="400" width="30" height="30" as="geometry" />
        </mxCell>
        <mxCell id="M1WHz1mQ-P7SR8G3ef1P-78" value="N" style="text;html=1;align=center;verticalAlign=middle;resizable=0;points=[];autosize=1;strokeColor=none;fillColor=none;" vertex="1" parent="M1WHz1mQ-P7SR8G3ef1P-63">
          <mxGeometry x="605" y="1000" width="30" height="30" as="geometry" />
        </mxCell>
        <mxCell id="M1WHz1mQ-P7SR8G3ef1P-79" value="" style="endArrow=none;html=1;rounded=0;exitX=0.517;exitY=0.007;exitDx=0;exitDy=0;exitPerimeter=0;entryX=0.519;entryY=0.986;entryDx=0;entryDy=0;entryPerimeter=0;" edge="1" parent="M1WHz1mQ-P7SR8G3ef1P-63" source="M1WHz1mQ-P7SR8G3ef1P-41" target="M1WHz1mQ-P7SR8G3ef1P-46">
          <mxGeometry width="50" height="50" relative="1" as="geometry">
            <mxPoint x="610" y="960" as="sourcePoint" />
            <mxPoint x="660" y="910" as="targetPoint" />
          </mxGeometry>
        </mxCell>
        <mxCell id="M1WHz1mQ-P7SR8G3ef1P-82" value="" style="endArrow=none;html=1;rounded=0;entryX=0.532;entryY=0.958;entryDx=0;entryDy=0;entryPerimeter=0;exitX=0.004;exitY=0.419;exitDx=0;exitDy=0;exitPerimeter=0;" edge="1" parent="M1WHz1mQ-P7SR8G3ef1P-63" source="M1WHz1mQ-P7SR8G3ef1P-41" target="M1WHz1mQ-P7SR8G3ef1P-38">
          <mxGeometry width="50" height="50" relative="1" as="geometry">
            <mxPoint x="140" y="700" as="sourcePoint" />
            <mxPoint x="190" y="650" as="targetPoint" />
          </mxGeometry>
        </mxCell>
        <mxCell id="M1WHz1mQ-P7SR8G3ef1P-67" value="1" style="text;html=1;align=center;verticalAlign=middle;resizable=0;points=[];autosize=1;strokeColor=none;fillColor=none;" vertex="1" parent="1">
          <mxGeometry x="-155" y="398" width="30" height="30" as="geometry" />
        </mxCell>
        <mxCell id="M1WHz1mQ-P7SR8G3ef1P-69" value="N" style="text;html=1;align=center;verticalAlign=middle;resizable=0;points=[];autosize=1;strokeColor=none;fillColor=none;" vertex="1" parent="1">
          <mxGeometry x="-155" y="698" width="30" height="30" as="geometry" />
        </mxCell>
        <mxCell id="M1WHz1mQ-P7SR8G3ef1P-71" value="1" style="text;html=1;align=center;verticalAlign=middle;resizable=0;points=[];autosize=1;strokeColor=none;fillColor=none;" vertex="1" parent="1">
          <mxGeometry x="-75" y="348" width="30" height="30" as="geometry" />
        </mxCell>
        <mxCell id="M1WHz1mQ-P7SR8G3ef1P-73" value="1" style="text;html=1;align=center;verticalAlign=middle;resizable=0;points=[];autosize=1;strokeColor=none;fillColor=none;" vertex="1" parent="1">
          <mxGeometry x="-65" y="378" width="30" height="30" as="geometry" />
        </mxCell>
        <mxCell id="M1WHz1mQ-P7SR8G3ef1P-76" value="4" style="text;html=1;align=center;verticalAlign=middle;resizable=0;points=[];autosize=1;strokeColor=none;fillColor=none;" vertex="1" parent="1">
          <mxGeometry x="-75" y="728" width="30" height="30" as="geometry" />
        </mxCell>
        <mxCell id="M1WHz1mQ-P7SR8G3ef1P-77" value="M" style="text;html=1;align=center;verticalAlign=middle;resizable=0;points=[];autosize=1;strokeColor=none;fillColor=none;" vertex="1" parent="1">
          <mxGeometry x="-155" y="778" width="30" height="30" as="geometry" />
        </mxCell>
        <mxCell id="M1WHz1mQ-P7SR8G3ef1P-81" value="1" style="text;html=1;align=center;verticalAlign=middle;resizable=0;points=[];autosize=1;strokeColor=none;fillColor=none;" vertex="1" parent="1">
          <mxGeometry x="-195" y="408" width="30" height="30" as="geometry" />
        </mxCell>
        <mxCell id="M1WHz1mQ-P7SR8G3ef1P-84" value="N" style="text;html=1;align=center;verticalAlign=middle;resizable=0;points=[];autosize=1;strokeColor=none;fillColor=none;" vertex="1" parent="1">
          <mxGeometry x="-275" y="1008" width="30" height="30" as="geometry" />
        </mxCell>
        <mxCell id="M1WHz1mQ-P7SR8G3ef1P-85" value="1" style="text;html=1;align=center;verticalAlign=middle;resizable=0;points=[];autosize=1;strokeColor=none;fillColor=none;" vertex="1" parent="1">
          <mxGeometry x="395" y="398" width="30" height="30" as="geometry" />
        </mxCell>
        <mxCell id="M1WHz1mQ-P7SR8G3ef1P-86" value="1" style="text;html=1;align=center;verticalAlign=middle;resizable=0;points=[];autosize=1;strokeColor=none;fillColor=none;" vertex="1" parent="1">
          <mxGeometry x="395" y="1008" width="30" height="30" as="geometry" />
        </mxCell>
        <mxCell id="M1WHz1mQ-P7SR8G3ef1P-88" value="1" style="text;html=1;align=center;verticalAlign=middle;resizable=0;points=[];autosize=1;strokeColor=none;fillColor=none;" vertex="1" parent="1">
          <mxGeometry x="285" y="1038" width="30" height="30" as="geometry" />
        </mxCell>
        <mxCell id="M1WHz1mQ-P7SR8G3ef1P-89" value="100" style="text;html=1;align=center;verticalAlign=middle;resizable=0;points=[];autosize=1;strokeColor=none;fillColor=none;" vertex="1" parent="1">
          <mxGeometry x="-70" y="1028" width="40" height="30" as="geometry" />
        </mxCell>
      </root>
    </mxGraphModel>
  </diagram>
</mxfile>
